# xmcd CD database file
#
# Track frame offsets:
#	150
#	15497
#	30949
#	48565
#	63115
#	78893
#	91599
#	101994
#	110922
#	118881
#	128730
#	140464
#	154325
#	168696
#	178373
#	190681
#	203501
#	213676
#	232716
#	246598
#	270015
#	281169
#	296193
#	306122
#	322306
#	334986
#
# Disc length: 4742 seconds
#
# Revision: 0
# Processed by: cddbd v1.5.2PL0 Copyright (c) Steve Scherf et al.
# Submitted via: CDex 1.70beta2
#
DISCID=8412841a
DTITLE=Frank Sinatra - Summer Wind
DYEAR=2005
DGENRE=Jazz
TTITLE0=New York, New York
TTITLE1=I've Got You Under My Skin
TTITLE2=All Or Nothing At All
TTITLE3=Come Fly With Me
TTITLE4=Night And Day
TTITLE5=Summer Wind
TTITLE6=Nancy
TTITLE7=Jingle Bells
TTITLE8=I Love Paris
TTITLE9=Love And Marriage
TTITLE10=The Best Is Yet To Come
TTITLE11=My Kind Of Town
TTITLE12=I Get A Kick Out Of You
TTITLE13=Chicago
TTITLE14=The Last Dance
TTITLE15=I Wouldn't Trade Christmas
TTITLE16=Fly Me To The Moon
TTITLE17=It Was A Very Good Year
TTITLE18=That's Life
TTITLE19=Luck Be A Lady
TTITLE20=Strangers In The Night
TTITLE21=The Way You Looked Tonight
TTITLE22=We Wish You The Merriest
TTITLE23=Send In The Clowns
TTITLE24=The Lady Is A Tramp
TTITLE25=My Way
EXTD=YEAR: 2005
EXTT0=
EXTT1=
EXTT2=
EXTT3=
EXTT4=
EXTT5=
EXTT6=
EXTT7=
EXTT8=
EXTT9=
EXTT10=
EXTT11=
EXTT12=
EXTT13=
EXTT14=
EXTT15=
EXTT16=
EXTT17=
EXTT18=
EXTT19=
EXTT20=
EXTT21=
EXTT22=
EXTT23=
EXTT24=
EXTT25=
PLAYORDER=
